<svg width="55" height="60" viewBox="0 0 55 60" fill="none" xmlns="http://www.w3.org/2000/svg">
<path d="M11.3235 0C13.0396 0 14.6855 0.632141 15.8989 1.75736C17.1124 2.88258 17.7941 4.4087 17.7941 6C17.7941 7.5913 17.1124 9.11742 15.8989 10.2426C14.6855 11.3679 13.0396 12 11.3235 12C9.60742 12 7.9616 11.3679 6.74813 10.2426C5.53466 9.11742 4.85294 7.5913 4.85294 6C4.85294 4.4087 5.53466 2.88258 6.74813 1.75736C7.9616 0.632141 9.60742 0 11.3235 0ZM6.47059 15H16.1765C17.8926 15 19.5384 15.6321 20.7519 16.7574C21.9653 17.8826 22.6471 19.4087 22.6471 21V37.5H17.7941V60H4.85294V37.5H0V21C0 19.4087 0.68172 17.8826 1.89519 16.7574C3.10866 15.6321 4.75448 15 6.47059 15ZM40.4412 0C42.1573 0 43.8031 0.632141 45.0166 1.75736C46.23 2.88258 46.9118 4.4087 46.9118 6C46.9118 7.5913 46.23 9.11742 45.0166 10.2426C43.8031 11.3679 42.1573 12 40.4412 12C38.7251 12 37.0793 11.3679 35.8658 10.2426C34.6523 9.11742 33.9706 7.5913 33.9706 6C33.9706 4.4087 34.6523 2.88258 35.8658 1.75736C37.0793 0.632141 38.7251 0 40.4412 0ZM35.5882 60V42H25.8824L34.2618 19.23C35.0706 16.77 37.5294 15 40.4412 15C43.3529 15 45.8118 16.77 46.6206 19.23L55 42H45.2941V60H35.5882Z" fill="#C19561"/>
</svg>
